<svg xmlns="http://www.w3.org/2000/svg" xml:space="preserve" id="elbow" x="0" y="0" version="1.1" viewBox="0 0 32 32">
  <path fill="#333" d="M30.667 15.76c-3.234-.706-5.723-1.021-8.068-1.021-.75 0-1.49.035-2.199.103-3.294.317-6.252 1.425-8.489 3.16A98.231 98.231 0 0 1 7.18.835a1 1 0 0 0-.982-.823L2.411 0c-.387.003-.737.22-.904.568l-.135.281a.948.948 0 0 0-.051.128C-.665 7.183-.004 12.308.696 17.733l.04.307c.113.872.247 1.742.381 2.612l.55 3.553c.105.68.264 1.707.992 2.456.896.92 2.102.98 3.164 1.033.39.019.759.038 1.084.096.694.125 1.369.485 2.084.867l.354.188C13.22 30.879 17.956 32 22.681 32h.001c2.832 0 5.533-.393 8.025-1.167a1 1 0 0 0 .688-.786c.789-4.601.804-9.137.044-13.482-.07-.4-.375-.718-.772-.805zM22.681 30c-4.406 0-8.813-1.039-12.405-2.926l-.342-.182c-.82-.438-1.668-.891-2.673-1.072-.451-.081-.902-.104-1.339-.125-.795-.04-1.481-.074-1.829-.431-.262-.269-.358-.778-.449-1.367l-.55-3.552c-.132-.854-.264-1.708-.374-2.563l-.04-.306c-.683-5.293-1.275-9.882.417-15.474l2.266.007a100.203 100.203 0 0 0 5.197 18.053c.123.313.396.543.725.613a.995.995 0 0 0 .91-.269c1.992-1.976 4.974-3.246 8.396-3.574 2.561-.245 5.287-.029 8.987.74.333 2.143.444 4.339.382 6.563a14.647 14.647 0 0 1-7.189.856c-2.537-.344-5-1.395-6.933-2.959a.5.5 0 0 0-.629.777c2.073 1.677 4.711 2.804 7.427 3.173.676.091 1.361.137 2.049.137 1.782 0 3.567-.323 5.229-.913a39.29 39.29 0 0 1-.39 3.89c-2.135.6-4.434.904-6.843.904z"></path>
</svg>
