<svg xmlns="http://www.w3.org/2000/svg" xml:space="preserve" id="fitness-tracking" x="0" y="0" style="enable-background:new 0 0 100 100" version="1.1" viewBox="0 0 100 100">
  <path d="M91.5,50c0,0.83-0.67,1.5-1.5,1.5h-8c-0.83,0-1.5-0.67-1.5-1.5s0.67-1.5,1.5-1.5h8C90.83,48.5,91.5,49.17,91.5,50z M80,35.5
	c0.38,0,0.77-0.15,1.06-0.44l6-6c0.59-0.59,0.59-1.54,0-2.12c-0.59-0.59-1.54-0.59-2.12,0l-6,6c-0.59,0.59-0.59,1.54,0,2.12
	C79.23,35.35,79.62,35.5,80,35.5z M81.06,64.94c-0.59-0.59-1.54-0.59-2.12,0c-0.59,0.59-0.59,1.54,0,2.12l6,6
	c0.29,0.29,0.68,0.44,1.06,0.44s0.77-0.15,1.06-0.44c0.59-0.59,0.59-1.54,0-2.12L81.06,64.94z M19.5,50c0-0.83-0.67-1.5-1.5-1.5h-8
	c-0.83,0-1.5,0.67-1.5,1.5s0.67,1.5,1.5,1.5h8C18.83,51.5,19.5,50.83,19.5,50z M15.06,26.94c-0.59-0.59-1.54-0.59-2.12,0
	c-0.59,0.59-0.59,1.54,0,2.12l6,6c0.29,0.29,0.68,0.44,1.06,0.44s0.77-0.15,1.06-0.44c0.59-0.59,0.59-1.54,0-2.12L15.06,26.94z
	 M18.94,64.94l-6,6c-0.59,0.59-0.59,1.54,0,2.12c0.29,0.29,0.68,0.44,1.06,0.44s0.77-0.15,1.06-0.44l6-6c0.59-0.59,0.59-1.54,0-2.12
	C20.47,64.35,19.53,64.35,18.94,64.94z M73.57,46v8c0,0.83-0.67,1.5-1.5,1.5c-0.2,0-0.4-0.04-0.57-0.11v12.56
	c0,3.9-2.97,7.12-6.77,7.51c-0.78,0.95-1.23,2.12-1.23,3.37v7.14c0,3.05-2.48,5.54-5.54,5.54H42.04c-3.05,0-5.54-2.48-5.54-5.54
	v-7.14c0-1.25-0.45-2.42-1.23-3.37c-3.8-0.39-6.77-3.61-6.77-7.51v-35.9c0-3.9,2.97-7.12,6.77-7.51c0.78-0.95,1.23-2.12,1.23-3.37
	v-7.14c0-3.05,2.48-5.54,5.54-5.54h15.93c3.05,0,5.54,2.48,5.54,5.54v7.14c0,1.25,0.45,2.42,1.23,3.37c3.8,0.39,6.77,3.61,6.77,7.51
	v12.56c0.18-0.07,0.37-0.11,0.57-0.11C72.9,44.5,73.57,45.17,73.57,46z M38.81,24.5h22.38c-0.45-1.04-0.69-2.16-0.69-3.33v-7.14
	c0-1.4-1.14-2.54-2.54-2.54H42.04c-1.4,0-2.54,1.14-2.54,2.54v7.14C39.5,22.34,39.26,23.46,38.81,24.5z M61.19,75.5H38.81
	c0.45,1.04,0.69,2.16,0.69,3.33v7.14c0,1.4,1.14,2.54,2.54,2.54h15.93c1.4,0,2.54-1.14,2.54-2.54v-7.14
	C60.5,77.66,60.74,76.54,61.19,75.5z M68.5,32.05c0-2.51-2.04-4.55-4.55-4.55h-27.9c-2.51,0-4.55,2.04-4.55,4.55v35.9
	c0,2.51,2.04,4.55,4.55,4.55h27.9c2.51,0,4.55-2.04,4.55-4.55V32.05z M50.8,41.41L50,42.2l-0.8-0.79c-2.58-2.55-6.77-2.55-9.34,0
	c-1.25,1.23-1.93,2.88-1.93,4.63c0,1.75,0.69,3.4,1.93,4.63l9.79,9.69c0.1,0.1,0.22,0.14,0.35,0.14s0.25-0.05,0.35-0.14l9.79-9.69
	c1.25-1.23,1.93-2.88,1.93-4.63c0-1.75-0.69-3.4-1.93-4.63C57.57,38.86,53.38,38.86,50.8,41.41z"></path>
</svg>
