<svg xmlns="http://www.w3.org/2000/svg" xml:space="preserve" id="foot" x="0" y="0" version="1.1" viewBox="0 0 32 32">
  <path fill="#333" d="M29.63 25.97a6.206 6.206 0 0 0-1.359-.124l-.774.007-.189-.002c-2.979-.058-5.66-1.797-8.605-3.893-1.49-1.06-3.031-2.157-4.03-3.618-1.302-1.904-1.601-4.379-1.712-6.076-.049-.74-.072-1.482-.095-2.224-.048-1.563-.099-3.18-.387-4.78-.369-2.045-1.128-3.448-2.321-4.289C8.936.11 7.447 0 6.286 0c-.32 0-.639.009-.953.02C4.175.059 1.463.15.397 2.177c-.651 1.237-.35 2.64-.151 3.569l2.19 10.219c.291 1.355.619 2.891.175 4.176-.178.515-.487 1.014-.815 1.542-.344.554-.699 1.127-.95 1.789a5.782 5.782 0 0 0 .417 4.939 5.93 5.93 0 0 0 4.118 2.81c.337.055.691.083 1.053.083 1.161 0 2.272-.281 3.348-.552.6-.151 1.167-.294 1.732-.389.598-.1 1.213-.148 1.879-.148 1.969 0 3.945.424 6.037.874 2.086.448 4.243.911 6.39.911 1.126 0 2.153-.124 3.139-.379.572-.148 1.409-.414 2.073-1.012.782-.704 1.127-1.709.9-2.623-.244-.984-1.126-1.757-2.302-2.016zm.064 3.153c-.258.232-.651.411-1.236.562A10.42 10.42 0 0 1 25.82 30c-1.935 0-3.895-.421-5.97-.866-2.102-.452-4.276-.918-6.457-.918-.778 0-1.5.057-2.208.175-.646.108-1.28.268-1.893.422-1 .252-1.945.491-2.858.491a4.51 4.51 0 0 1-.73-.057c-1.113-.182-2.154-.891-2.717-1.849a3.815 3.815 0 0 1-.272-3.216c.183-.481.473-.949.781-1.445.371-.599.755-1.218 1.006-1.943.626-1.812.218-3.717-.11-5.248L2.202 5.327c-.184-.855-.325-1.669-.035-2.219.466-.885 1.973-1.047 3.234-1.09.292-.009.588-.018.885-.018.919 0 1.961.072 2.719.606.742.523 1.235 1.507 1.505 3.009.262 1.456.308 2.928.356 4.487.024.766.048 1.531.098 2.293.127 1.931.478 4.765 2.057 7.074 1.201 1.756 2.965 3.011 4.522 4.119 2.622 1.866 5.886 4.188 9.725 4.263l.229.002.774-.007c.288 0 .624.009.926.076.397.088.738.322.793.545.046.181-.082.463-.296.656z"></path>
  <path fill="#333" d="M8.5 26A2.503 2.503 0 0 1 6 23.5a.5.5 0 0 0-1 0C5 25.43 6.57 27 8.5 27a.5.5 0 0 0 0-1z"></path>
</svg>
