<svg xmlns="http://www.w3.org/2000/svg" enable-background="new 0 0 2000 2000" viewBox="0 0 2000 2000" id="woman-shoulders">
  <path fill="none" stroke="#000dff" stroke-linecap="round" stroke-linejoin="round" stroke-miterlimit="10" stroke-width="3.876" d="
						M947.967,287.622c1.5,7.695,11,57.687,5.628,63.06c-5.823,5.823-34.937,29.115-64.052,40.76
						c-29.115,11.646-64.052,0-98.989,46.583s-17.469,98.989-17.469,110.635c-11.646,11.646-29.115,46.583-34.937,75.698
						c-5.823,29.115-5.823,87.344-5.823,98.989c-11.646,11.646-43.672,49.495-49.495,78.609s0,93.166-29.115,180.51l-0.045-0.021
						c-1.524,4.113-7.466,11.579-10.513,12.188c-3.047,0.61-30.32,11.783-37.633,24.378c-7.313,12.595-7.313,14.728-9.954,17.47
						c-2.641,2.743-13.509,9.751-15.541,11.884c-2.031,2.133-3.453,10.157,2.235,11.478c5.688,1.321,20.899-1.981,25.85-13.103
						c5.942-3.885,7.389-3.961,7.389-3.961s2.006,6.094,1.701,10.97c-0.304,4.875-10.309,19.807-14.271,28.644
						c-3.961,8.837-15.845,25.14-12.646,29.71c3.199,4.571,7.77,3.809,9.751,2.285c1.981-1.524,13.255-20.645,15.464-23.996
						c2.514-3.276,11.96-15.464,13.636-17.293c-2.691,11.122-7.059,24.225-8.786,29.405c-1.727,5.181-9.78,20.776-9.853,26.104
						c-0.102,7.415,5.017,9.057,8.43,6.805c9.548-6.297,14.908-22.432,17.268-27.12c3.993-7.935,8.329-22.042,12.392-28.542
						c-1.016,7.922-3.495,18.841-4.825,28.085c-0.673,4.675-4.772,28.741,0.457,30.32c8.075,2.438,9.141-6.856,12.341-17.826
						c3.2-10.97,7.161-38.09,9.599-42.203c3.656,0.762,3.107,3.345,3.809,10.665c0.922,9.614,0.152,33.519,7.161,33.519
						c7.009,0,7.516-24.073,8.43-38.699c0.914-14.626,5.688-22.346,8.126-34.332c1.856-9.128,5.592-20.962,7.093-32.281
						c0.47-3.543,0.721-7.036,0.626-10.379c-0.184-6.512-2.946-12.29,2.641-33.113l-0.047-0.022
						c22.763-48.247,73.72-136.622,82.029-165.705c11.646-40.76,5.51-81.682,11.646-93.166
						c26.669-49.914,30.723-69.875,48.192-128.104c11.646,5.823,23.292,5.823,17.469,5.823c-5.823,0,23.292,110.635,29.115,157.218
						c-11.646,29.115-53.115,80.956-64.76,115.893c-11.646,34.937-37.825,137.792-23.224,334.267
						c8.511,114.528,41.401,103.016,41.401,155.422s0,64.052,5.823,75.698c-11.646,17.469-23.292,58.229-23.292,122.281
						s34.937,98.989,34.937,174.687c0,0,5.823,58.229,5.823,69.875c-5.823,11.646-11.646,23.292-5.823,40.76
						c-5.823,17.469-40.76,64.052-46.583,75.698c-5.823,11.646,0,34.937,17.469,34.937c17.469,0,58.229,5.823,69.875-11.646
						c11.646-17.469,11.646-23.292,11.646-23.292s-5.823-46.583,0-58.229c5.823-11.646,11.646-17.469,5.823-40.76
						c-5.823-23.292-5.823-157.218,5.823-197.979c11.646-40.76,29.115-163.041,5.823-203.802
						c5.823-11.646,17.469-17.469,17.469-58.229c11.646-29.115,24.223-88.199,20.878-128.349
						c-4.236-50.837,10.037-103.718,16.729-170.633c1.83-18.3-2.669-50.393-2.669-50.393h28.758c0,0-4.499,32.093-2.669,50.393
						c6.692,66.915,20.965,119.796,16.729,170.633c-3.346,40.149,9.232,99.234,20.878,128.349c0,40.76,11.646,46.583,17.469,58.229
						c-23.292,40.76-5.823,163.041,5.823,203.802c11.646,40.76,11.646,174.687,5.823,197.979s0,29.115,5.823,40.76
						c5.823,11.646,0,58.229,0,58.229s0,5.823,11.646,23.292c11.646,17.469,52.406,11.646,69.875,11.646
						c17.469,0,23.292-23.292,17.469-34.937c-5.823-11.646-40.76-58.229-46.583-75.698c5.823-17.469,0-29.115-5.823-40.76
						c0-11.646,5.823-69.875,5.823-69.875c0-75.698,34.938-110.635,34.938-174.687s-11.646-104.812-23.292-122.281
						c5.823-11.646,5.823-23.292,5.823-75.698s32.89-40.894,41.401-155.422c14.601-196.474-11.578-299.329-23.224-334.267
						c-11.646-34.937-53.114-86.779-64.76-115.893c5.823-46.583,34.937-157.218,29.115-157.218s5.823,0,17.469-5.823
						c17.469,58.229,21.523,78.19,48.192,128.104c6.136,11.484,0,52.406,11.646,93.166c8.31,29.084,59.266,117.458,82.029,165.705
						l-0.047,0.022c5.587,20.823,2.825,26.601,2.641,33.113c-0.094,3.344,0.156,6.836,0.626,10.379
						c1.501,11.319,5.237,23.153,7.093,32.281c2.438,11.985,7.212,19.705,8.126,34.332c0.914,14.626,1.422,38.699,8.43,38.699
						c7.009,0,6.24-23.905,7.161-33.519c0.702-7.32,0.152-9.903,3.809-10.665c2.438,4.114,6.399,31.234,9.599,42.203
						c3.2,10.97,4.266,20.264,12.341,17.826c5.229-1.578,1.13-25.644,0.457-30.32c-1.33-9.243-3.809-20.162-4.825-28.085
						c4.063,6.5,8.399,20.607,12.392,28.542c2.359,4.687,7.719,20.822,17.267,27.12c3.414,2.252,8.532,0.609,8.43-6.805
						c-0.073-5.329-8.126-20.924-9.853-26.104c-1.727-5.18-6.095-18.283-8.786-29.405c1.676,1.828,11.122,14.017,13.636,17.293
						c2.209,3.352,13.484,22.473,15.464,23.996c1.981,1.524,6.552,2.285,9.751-2.285c3.199-4.571-8.684-20.873-12.646-29.71
						c-3.962-8.837-13.966-23.768-14.271-28.644c-0.305-4.875,1.701-10.97,1.701-10.97s1.448,0.076,7.389,3.961
						c4.952,11.122,20.162,14.423,25.85,13.103c5.688-1.321,4.266-9.345,2.235-11.478c-2.031-2.133-12.9-9.141-15.541-11.884
						c-2.641-2.743-2.641-4.875-9.954-17.47c-7.313-12.595-34.585-23.768-37.633-24.378c-3.047-0.609-8.989-8.075-10.513-12.188
						l-0.045,0.021c-29.115-87.344-23.292-151.395-29.115-180.51s-37.849-66.963-49.495-78.609c0-11.646,0-69.875-5.823-98.989
						c-5.823-29.115-23.292-64.052-34.937-75.698c0-11.646,17.469-64.052-17.469-110.635
						c-34.937-46.583-69.875-34.937-98.989-46.583c-29.115-11.646-58.229-34.937-64.052-40.76
						c-5.373-5.373,4.127-55.364,5.628-63.06"></path>
  <path fill="none" stroke="#000dff" stroke-linecap="round" stroke-linejoin="round" stroke-miterlimit="10" stroke-width="3.876" d="
						M1008.364,306.498c23.42,0,41.562-13.652,46.84-23.42c5.944-11,13.839-36.996,13.058-36.8c0,0,0.995-4.009,1.688-1.24
						c0.402,1.608,1.206,3.282,3.015,4.22c2.807,1.455,6.3-5.314,9.981-11.723c9.79-17.046,18.96-49.568,5.426-53.658
						c-2.464-0.744-6.029,5.627-6.029,5.627c0-3.216,3.215-32.958-1.608-51.447c-3.863-14.809-18.326-29.615-29.743-38.585
						c-5.392-4.237-12.951-6.952-20.604-8.69c-12.143-2.759-24.525-3.078-28.869-3.094c-0.292-0.001-2.746-0.007-3.039-0.005
						c-3.988,0.015-14.749,0.295-25.881,2.471c-8.638,1.689-17.499,4.532-23.593,9.32c-11.417,8.97-25.88,23.776-29.743,38.585
						c-4.823,18.489-1.608,48.231-1.608,51.447c0,0-3.565-6.371-6.029-5.627c-13.534,4.09-4.364,36.612,5.426,53.658
						c3.681,6.409,7.174,13.178,9.982,11.723c1.809-0.938,2.612-2.613,3.014-4.22c0.692-2.768,1.688,1.24,1.688,1.24
						c-0.781-0.196,7.114,25.8,13.058,36.8c5.278,9.768,23.42,23.42,46.84,23.42"></path>
  <path fill="#ddddf2" d="M879.308 608.22c12.262 8.241 28.098 11.96 37.118 13.766 4.553.912 7.131 8.495 4.124 10.409-3.007 1.914-32.66-.084-37.651-5.191-4.991-5.107-8.483-13.699-8.847-17.498C873.688 605.906 879.308 608.22 879.308 608.22zM1120.692 608.22c-12.262 8.241-28.098 11.96-37.118 13.766-4.553.912-7.131 8.495-4.124 10.409 3.006 1.914 32.66-.084 37.651-5.191 4.991-5.107 8.483-13.699 8.847-17.498C1126.312 605.906 1120.692 608.22 1120.692 608.22z" opacity=".33"></path>
  <path fill="#ddddf2" d="M874.697 634.463c.028.77.196 1.511.542 2.198 5.491 10.898 20.455 27.959 25.323 29.256 2.951.786 12.563-15.139 14.028-16.487 1.465-1.348 4.108-7.121 4.108-7.121s-28.555-4.124-34.554-7.688c-2.125-1.263-9.776-9.08-9.776-9.08L874.697 634.463zM1125.303 634.463c-.028.77-.196 1.511-.542 2.198-5.491 10.898-20.455 27.959-25.323 29.256-2.95.786-12.563-15.139-14.028-16.487-1.465-1.348-4.108-7.121-4.108-7.121s28.555-4.124 34.554-7.688c2.125-1.263 9.776-9.08 9.776-9.08L1125.303 634.463zM882.286 651.69c0 0-2.39 18.093 4.096 31.748 6.486 13.655 9.217 15.362 9.217 15.362s8.193-21.848 4.779-25.262S882.286 651.69 882.286 651.69zM1117.714 651.69c0 0 2.39 18.093-4.097 31.748-6.486 13.655-9.217 15.362-9.217 15.362s-8.193-21.848-4.779-25.262C1103.034 670.124 1117.714 651.69 1117.714 651.69zM898.875 708.873c1.429 1.531 24.038 20.516 33.483 24.962 4.046 1.904.915 31.381.915 31.381s-27.934-22.516-32.148-29.252c-4.215-6.737-2.607-11.07-3.015-13.928C897.701 719.178 898.875 708.873 898.875 708.873zM1101.125 708.873c-1.429 1.531-24.038 20.516-33.483 24.962-4.046 1.904-.915 31.381-.915 31.381s27.934-22.516 32.148-29.252c4.215-6.737 2.607-11.07 3.015-13.928C1102.299 719.178 1101.125 708.873 1101.125 708.873zM923.447 650.238c-13.148 12.65-18.963 18.657-20.295 21.361-1.483 3.011 20.016 18.33 25.628 19.834 5.612 1.504 1.541-15.226 1.26-19.913-.281-4.687-.973-23.051-1.454-24.249C928.106 646.073 923.447 650.238 923.447 650.238zM1076.553 650.238c13.148 12.65 18.963 18.657 20.295 21.361 1.483 3.011-20.016 18.33-25.628 19.834-5.612 1.504-1.541-15.226-1.26-19.913s.973-23.051 1.454-24.249C1071.894 646.073 1076.553 650.238 1076.553 650.238zM904.625 685.612c.367-1.163 1.819-1.562 2.706-.725 6.347 5.992 23.853 14.958 24.844 18.158.77 2.484 2.428 20.593.182 21.205-2.246.612-32.947-20.669-32.564-22.6C900.302 699.083 903.182 690.182 904.625 685.612zM1095.375 685.612c-.367-1.163-1.819-1.562-2.706-.725-6.347 5.992-23.853 14.958-24.844 18.158-.77 2.484-2.428 20.593-.182 21.205 2.246.612 32.947-20.669 32.564-22.6C1099.698 699.083 1096.818 690.182 1095.375 685.612zM802.203 615.6c-8.695 32.342-42.157 104.358-42.702 106.052-1.332 4.139 1.282 9.615 4.679 12.085 5.32 3.87 10.913-4.318 13.782-7.856 19.396-23.925 36.526-68.942 39.266-79.985 3.283-13.232 13.719-31.933 9.462-54.168s-8.042-32.643-9.935-30.277c-2.494 3.125-3.034 9.66-4.005 13.395-2.621 10.09-4.001 20.52-6.869 30.469C804.876 608.798 803.154 612.061 802.203 615.6zM1197.797 615.6c8.695 32.342 42.157 104.358 42.703 106.052 1.332 4.139-1.282 9.615-4.679 12.085-5.32 3.87-10.913-4.318-13.782-7.856-19.396-23.925-36.526-68.942-39.266-79.985-3.283-13.232-13.719-31.933-9.462-54.168 4.258-22.235 8.042-32.643 9.935-30.277 2.494 3.125 3.035 9.66 4.005 13.395 2.621 10.09 4.001 20.52 6.869 30.469C1195.124 608.798 1196.846 612.061 1197.797 615.6z" opacity=".33"></path>
  <path fill="#ddddf2" d="M783.408 556.43c-11.78 6.074-31.751 40.78-34.547 58.085-5.188 32.112-3.612 49.606-3.923 59.097-.311 9.491 16.704 7.593 30.877-5.315 8.827-8.039 32.579-62.008 27.84-88.667C800.195 560.164 794.038 551.875 783.408 556.43zM1216.592 556.43c11.78 6.074 31.751 40.78 34.547 58.085 5.188 32.112 3.612 49.606 3.923 59.097.311 9.491-16.704 7.593-30.877-5.315-8.827-8.039-32.579-62.008-27.84-88.667C1199.805 560.164 1205.962 551.875 1216.592 556.43zM883.216 1307.481c8.441 0 36.587 2.01 39.797 5.225 3.21 3.215 9.238 47.83-8.446 71.945-17.685 24.116-32.958 11.656-37.781-2.412-4.823-14.068-19.695-53.457-14.068-65.515C868.345 1304.668 883.216 1307.481 883.216 1307.481zM1116.784 1307.481c-8.441 0-36.587 2.01-39.797 5.225-3.209 3.215-9.238 47.83 8.447 71.945 17.685 24.116 32.958 11.656 37.781-2.412 4.823-14.068 19.695-53.457 14.068-65.515C1131.655 1304.668 1116.784 1307.481 1116.784 1307.481z" opacity=".33"></path>
  <path fill="#ddddf2" d="M932.19 1346.514c-4.937 22.708-8.205 32.581-23.695 63.187-12.698 25.088-17.129 48.378-11.197 47.719 5.932-.658 27.323-50.062 30.614-59.246 3.291-9.183 13.194-37.312 13.987-43.104 1.12-8.177-1.481-13.493-3.456-15.797C936.468 1336.97 932.19 1346.514 932.19 1346.514zM1067.81 1346.514c4.937 22.708 8.205 32.581 23.695 63.187 12.698 25.088 17.129 48.378 11.197 47.719-5.932-.658-27.323-50.062-30.614-59.246-3.291-9.183-13.194-37.312-13.987-43.104-1.12-8.177 1.481-13.493 3.455-15.797C1063.532 1336.97 1067.81 1346.514 1067.81 1346.514zM927.488 1417.89c-5.523 16.995-25.067 43.336-26.341 59.906s11.604 122.573 10.197 135.744c5.175-8.992 11.672-50.567 20.818-72.439 5.633-13.47 5.943-40.171 2.597-90.358C933.571 1432.937 927.488 1417.89 927.488 1417.89zM1072.512 1417.89c5.523 16.995 25.067 43.336 26.341 59.906s-11.604 122.573-10.197 135.744c-5.175-8.992-11.672-50.567-20.818-72.439-5.633-13.47-5.943-40.171-2.597-90.358C1066.429 1432.937 1072.512 1417.89 1072.512 1417.89zM870.139 1387.5c7.836 53.143 34.053 179.977 36.887 236.662 2.834 56.686.709 49.246-1.771 53.851-2.48 4.606-25.154-58.339-32.24-93.767-7.086-35.428-15.589-121.874-12.282-154.941 3.307-33.067 1.89-58.575 5.196-57.158C869.235 1373.565 870.139 1387.5 870.139 1387.5zM1129.861 1387.5c-7.836 53.143-34.053 179.977-36.887 236.662-2.834 56.686-.709 49.246 1.771 53.851 2.48 4.606 25.154-58.339 32.24-93.767 7.086-35.428 15.589-121.874 12.282-154.941-3.307-33.067-1.89-58.575-5.196-57.158S1129.861 1387.5 1129.861 1387.5z" opacity=".33"></path>
  <path fill="#ddddf2" d="M848.297 1470.973c-3.364 39.406-1.922 112.932 3.364 143.687 5.286 30.756 21.625 92.748 23.067 103.32 1.442 10.572-3.364 22.586 0 26.431 3.364 3.844 14.897-20.177 12.975-40.364-1.922-20.187-16.492-71.607-20.5-91.79-4.008-20.183-14.1-71.123-13.619-88.903.481-17.781.481-40.367 1.442-58.148.961-17.781 3.364-24.989 0-24.989S848.297 1470.973 848.297 1470.973zM1151.703 1470.973c3.364 39.406 1.922 112.932-3.364 143.687s-21.625 92.748-23.067 103.32 3.364 22.586 0 26.431c-3.364 3.844-14.897-20.177-12.975-40.364 1.922-20.187 16.492-71.607 20.5-91.79 4.008-20.183 14.1-71.123 13.619-88.903-.481-17.781-.481-40.367-1.442-58.148-.961-17.781-3.364-24.989 0-24.989S1151.703 1470.973 1151.703 1470.973zM871.696 1819.356c7.452 13.662 33.508 19.547 37.098 32.71 5.585-5.186 9.973-26.328 7.18-38.295-2.792-11.967-5.186-20.743-7.978-24.732-2.792-3.989-3.607-5.987-6.383-9.973-2.483-3.565-10.97-12.516-17.353-5.335-6.382 7.18-5.264 10.521-6.721 20.095C876.084 1803.4 869.302 1814.968 871.696 1819.356zM1128.304 1819.356c-7.452 13.662-33.508 19.547-37.098 32.71-5.585-5.186-9.973-26.328-7.18-38.295s5.186-20.743 7.978-24.732c2.792-3.989 3.607-5.987 6.382-9.973 2.483-3.565 10.97-12.516 17.353-5.335 6.382 7.18 5.264 10.521 6.721 20.095C1123.916 1803.4 1130.698 1814.968 1128.304 1819.356zM894.213 1758.623c14.66 13.264 18.549 32.312 18.549 27.525s.897-18.25-4.488-24.234c-5.385-5.984-8.318-6.881-11.788-6.881S894.213 1758.623 894.213 1758.623zM1105.787 1758.623c-14.66 13.264-18.549 32.312-18.549 27.525s-.897-18.25 4.488-24.234c5.385-5.984 8.318-6.881 11.788-6.881S1105.787 1758.623 1105.787 1758.623zM882.554 861.794c16.494 12.326 67.941 77.706 84.699 159.7 0 0-8.774 29.364-20.545 26.795-2.618-.571-40.426-120.981-70.571-176.849-8.641-16.016-9.244-24.518-9.244-24.518L882.554 861.794zM1117.446 861.794c-16.494 12.326-67.941 77.706-84.699 159.7 0 0 8.774 29.364 20.545 26.795 2.618-.571 40.426-120.981 70.57-176.849 8.641-16.016 9.244-24.518 9.244-24.518L1117.446 861.794zM857.776 862.273c20.484 68.194 88.643 327.083 87.42 367.364 20.486-58.623 3.684-135.718-21.503-209.807C902.629 957.871 857.776 862.273 857.776 862.273zM1142.224 862.273c-20.484 68.194-88.643 327.083-87.42 367.364-20.486-58.623-3.684-135.718 21.503-209.807C1097.371 957.871 1142.224 862.273 1142.224 862.273zM847.057 876.876c12.862 59.987 56.828 156.643 62.403 240.354 5.373 80.669-4.124 162.393-19.129 168.824-15.005 6.431-40.509-99.763-44.882-117.645-11.091-45.348-35.476-128.171-32.797-170.954 2.313-36.932 8.533-56.287 13.504-73.419C832.836 901.019 847.057 876.876 847.057 876.876zM1152.943 876.876c-12.862 59.987-56.828 156.643-62.403 240.354-5.373 80.669 4.124 162.393 19.129 168.824s40.509-99.763 44.882-117.645c11.091-45.348 35.476-128.171 32.797-170.954-2.313-36.932-8.533-56.287-13.504-73.419C1167.164 901.019 1152.943 876.876 1152.943 876.876zM818.386 1084.004c2.68 24.116 18.891 103.028 39.389 154.073 9.546 23.772 12.326 49.303 4.823 57.342-7.503 8.039-16.077-36.442-27.867-55.198s-21.634-79.301-22.283-103.698c-.847-31.838-6.12-56.806-3.441-65.381C811.688 1062.568 818.386 1084.004 818.386 1084.004zM1181.614 1084.004c-2.68 24.116-18.891 103.028-39.389 154.073-9.546 23.772-12.326 49.303-4.823 57.342 7.503 8.039 16.077-36.442 27.867-55.198 11.79-18.757 21.634-79.301 22.283-103.698.847-31.838 6.12-56.806 3.441-65.381C1188.312 1062.568 1181.614 1084.004 1181.614 1084.004z" opacity=".33"></path>
  <path fill="#ddddf2" d="M915.419 1135.719c8.273 92.31-14.696 137.192-2.445 156.485 12.251 19.292 21.876 10.92 20.365.268-2.685-18.914 11.656-49.66 0-104.234C927.176 1159.384 915.419 1135.719 915.419 1135.719zM1084.581 1135.719c-8.273 92.31 14.696 137.192 2.445 156.485-12.251 19.292-21.876 10.92-20.365.268 2.685-18.914-11.656-49.66 0-104.234C1072.824 1159.384 1084.581 1135.719 1084.581 1135.719zM971.656 1033.361c-9.914 14.737-23.312 28.452-23.044 33.117.268 4.665 13.934 75.404 13.13 83.443 8.307-8.039 16.077-104.502 15.541-113.344S971.656 1033.361 971.656 1033.361zM1028.344 1033.361c9.914 14.737 23.312 28.452 23.044 33.117-.268 4.665-13.933 75.404-13.13 83.443-8.307-8.039-16.077-104.502-15.541-113.344S1028.344 1033.361 1028.344 1033.361zM867.846 515.219c-33.461 102.433 86.738 111.479 117.098 68.975 16.729-23.42 26.766-80.298-13.383-100.372C908.647 452.365 896.371 427.896 867.846 515.219z" opacity=".33"></path>
  <path fill="#ddddf2" d="M1132.154,515.219c33.461,102.433-86.738,111.479-117.098,68.975
					c-16.729-23.42-26.766-80.298,13.383-100.372C1091.353,452.365,1103.629,427.896,1132.154,515.219z" opacity=".33"></path>
  <g opacity=".33">
    <path fill="#ddddf2" d="M940.621 636.603c-5.321 3.611-5.362 14-6.255 18.17-.894 4.17 2.085 22.936 2.085 22.936s2.979 14.893 4.17 16.681c1.491 2.228 40.638-23.097 44.404-25.431 3.172-1.965 7.278-1.926 8.765-6.069 2.446-6.814 1.161-15.136.867-22.304-.259-6.303.117-19.729-5.915-23.68-5.403-3.539-12.688 2.545-17.505 4.672-8.314 3.67-16.647 7.379-24.694 11.611C944.53 634.247 942.505 635.324 940.621 636.603zM989.228 676.691c-4 .958-4.708 2.302-8.551 4.153-4.75 2.289-9.426 4.735-14.04 7.286-7.157 3.958-15.965 8.07-21.616 14.163-.219.236-.435.475-.627.734-4.567 6.156-4.766 27.007-4.369 28.397.397 1.39 51.945 5.461 54.51-1.886 2.168-6.21.508-12.802.745-19.275.342-9.349.854-20.491-.149-28.832C995.048 680.743 991.11 676.241 989.228 676.691zM939.888 744.332c-3.239 9.532-1.452 33.759 2.52 37.135 3.972 3.376 45.673 3.223 50.042 3.024 4.369-.199 4.098-21.095 4.17-27.847.073-6.752.528-18.234-2.054-19.227-2.581-.993-21.379-.83-27.138 1.355C961.67 740.957 939.888 744.332 939.888 744.332zM946.58 792.389c4.907 92.923 11.598 133.072 36.098 143.426 2.852 1.205 5.085.005 10.292-.266 1.261-.066 2.284-1.038 2.409-2.295 1.8-18.144-2.028-129.272-2.028-134.511 0-5.56-8.521-6.13-12.89-7.321-4.369-1.191-29.636-2.211-31.759-.622L946.58 792.389z"></path>
  </g>
  <g opacity=".33">
    <path fill="#ddddf2" d="M1059.379 636.603c5.321 3.611 5.362 14 6.255 18.17.894 4.17-2.085 22.936-2.085 22.936s-2.979 14.893-4.17 16.681c-1.492 2.228-40.638-23.097-44.404-25.431-3.172-1.965-7.278-1.926-8.765-6.069-2.446-6.814-1.161-15.136-.867-22.304.259-6.303-.117-19.729 5.915-23.68 5.403-3.539 12.688 2.545 17.505 4.672 8.314 3.67 16.647 7.379 24.694 11.611C1055.47 634.247 1057.495 635.324 1059.379 636.603zM1010.772 676.691c4 .958 4.708 2.302 8.551 4.153 4.75 2.289 9.426 4.735 14.04 7.286 7.157 3.958 15.965 8.07 21.616 14.163.219.236.435.475.627.734 4.567 6.156 4.766 27.007 4.369 28.397-.397 1.39-51.945 5.461-54.51-1.886-2.168-6.21-.508-12.802-.745-19.275-.342-9.349-.854-20.491.149-28.832C1004.952 680.743 1008.89 676.241 1010.772 676.691zM1060.112 744.332c3.239 9.532 1.452 33.759-2.52 37.135-3.972 3.376-45.673 3.223-50.042 3.024-4.369-.199-4.098-21.095-4.17-27.847-.073-6.752-.528-18.234 2.054-19.227 2.581-.993 21.379-.83 27.138 1.355C1038.33 740.957 1060.112 744.332 1060.112 744.332zM1053.42 792.389c-4.907 92.923-11.598 133.072-36.098 143.426-2.852 1.205-5.085.005-10.292-.266-1.261-.066-2.284-1.038-2.409-2.295-1.8-18.144 2.028-129.272 2.028-134.511 0-5.56 8.521-6.13 12.89-7.321 4.369-1.191 29.636-2.211 31.759-.622L1053.42 792.389z"></path>
  </g>
  <path fill="#000dff" d="M867.843 483.822c-4.668 14.003-8.733 34.433-16.729 46.84-5.089 7.897-6.755 9.605-12.709 16.822-5.888 7.136-9.362 13.605-19.397 8.36-23.537-12.304-39.799-36.483-37.72-63.569 1.15-14.976 7.944-29.435 18.606-39.995 11.838-11.725 23.338-23.251 38.625-30.668 20.948-10.164 53.937-11.03 72.819 1.987C942.67 445.2 884.572 433.636 867.843 483.822zM1132.157 483.822c4.668 14.003 8.733 34.433 16.729 46.84 5.089 7.897 6.755 9.605 12.709 16.822 5.888 7.136 9.362 13.605 19.397 8.36 23.537-12.304 39.799-36.483 37.72-63.569-1.15-14.976-7.944-29.435-18.606-39.995-11.838-11.725-23.338-23.251-38.625-30.668-20.948-10.164-53.937-11.03-72.819 1.987C1057.33 445.2 1115.428 433.636 1132.157 483.822z"></path>
  <path fill="#ddddf2" d="M896.46 779.354c.233-.572.992-.665 1.419-.219 17.244 18.02 29.315 23.484 32.661 26.181 3.164 2.552 4.083 58.589 7.757 72.47 1.654 6.247 4.833 12.465 2.059 13.809-3.674 1.78-13.364-2.684-16.122-5.694l-32.889-35.879C891.344 850.024 892.074 790.111 896.46 779.354zM1103.54 779.354c-.233-.572-.992-.665-1.419-.219-17.244 18.02-29.315 23.484-32.661 26.181-3.164 2.552-4.083 58.589-7.757 72.47-1.654 6.247-4.833 12.465-2.059 13.809 3.674 1.78 13.364-2.684 16.122-5.694l32.889-35.879C1108.656 850.024 1107.926 790.111 1103.54 779.354zM901.088 741.88c3.458 5.278 26.364 22.522 28.73 25.434 2.366 2.912-.022 20.702.773 27.663-9.1-2.184-28.425-18.108-29.699-24.296C899.618 764.492 901.088 741.88 901.088 741.88zM1098.912 741.88c-3.458 5.278-26.364 22.522-28.73 25.434-2.366 2.912.022 20.702-.773 27.663 9.1-2.184 28.425-18.108 29.699-24.296C1100.382 764.492 1098.912 741.88 1098.912 741.88zM730.541 738.534c11.331-6.388 9.588 70.069 2.556 90.531-7.48 21.768-17.212 50.745-26.703 77.358-5.675 15.914-21.099 73.352-28.789 77.465-7.69 4.113-2.189-33.582.758-48.606 2.947-15.023 10.442-77.252 13.092-88.991 2.651-11.739-1.323-43.88 6.409-56.222C705.597 777.727 713.829 747.955 730.541 738.534zM1269.459 738.534c-11.331-6.388-9.588 70.069-2.556 90.531 7.48 21.768 17.212 50.745 26.703 77.358 5.675 15.914 21.099 73.352 28.789 77.465 7.69 4.113 2.189-33.582-.758-48.606-2.947-15.023-10.442-77.252-13.092-88.991-2.651-11.739 1.323-43.88-6.409-56.222C1294.402 777.727 1286.171 747.955 1269.459 738.534zM778.507 761.57c6.034 22.743-3.423 44.384-8.065 57.844-4.641 13.46-13.75 26.63-22.105 39.626-8.355 12.996-31.365 67.078-36.783 81.457-12.986 34.463-19.262 24.6-14.156 11.604 5.106-12.996 14.737-42.469 20.77-56.393 6.034-13.924 7.774-22.174 14.969-37.944 7.078-15.516 15.201-32.142 20.306-46.066 5.106-13.924 7.426-47.807 15.781-50.127C777.579 759.25 778.507 761.57 778.507 761.57zM1221.493 761.57c-6.034 22.743 3.423 44.384 8.065 57.844 4.641 13.46 13.75 26.63 22.105 39.626 8.355 12.996 31.365 67.078 36.783 81.457 12.986 34.463 19.262 24.6 14.156 11.604-5.106-12.996-14.737-42.469-20.771-56.393-6.034-13.924-7.774-22.174-14.969-37.944-7.078-15.516-15.201-32.142-20.306-46.066-5.106-13.924-7.426-47.807-15.781-50.127C1222.421 759.25 1221.493 761.57 1221.493 761.57zM961.951 306.498c15.233 12.299 15.525 25.746 22.228 39.153 19.295 38.589 12.27 61.873 7.791 57.076-13.048-13.973-26.634-58.656-28.665-62.379C961.274 336.624 961.951 306.498 961.951 306.498zM958.653 361.11c-2.013 15.599-.77 20.757 2.496 29.06 3.266 8.303 21.633 16.983 23.394 18.241-9.938-23.776-19.122-40.13-23.394-54.975C957.622 354.191 958.653 361.11 958.653 361.11zM942.702 368.254c-8.555 10.316-41.011 31.639-50.069 34.469-1.51 5.85 46.043 11.196 52.081 6.416 6.039-4.78 6.039-35.602 5.032-40.885C948.741 362.97 942.702 368.254 942.702 368.254zM1038.049 306.498c-15.233 12.299-15.525 25.746-22.228 39.153-19.295 38.589-12.27 61.873-7.791 57.076 13.048-13.973 26.634-58.656 28.665-62.379C1038.726 336.624 1038.049 306.498 1038.049 306.498zM1041.347 361.11c2.013 15.599.77 20.757-2.496 29.06-3.266 8.303-21.633 16.983-23.394 18.241 9.938-23.776 19.122-40.13 23.394-54.975C1042.378 354.191 1041.347 361.11 1041.347 361.11zM1057.298 368.254c8.555 10.316 41.011 31.639 50.069 34.469 1.51 5.85-46.043 11.196-52.081 6.416-6.039-4.78-6.039-35.602-5.032-40.885C1051.259 362.97 1057.298 368.254 1057.298 368.254z" opacity=".33"></path>
  <path fill="none" stroke="#000dff" stroke-linecap="round" stroke-linejoin="round" stroke-miterlimit="10" stroke-width="3.876" d="M1025.257 61.22c4.306 5.264 6.889 11.993 6.889 19.324 0 3.59-.62 7.037-1.758 10.237M972.6 90.151c-1-3.021-1.542-6.251-1.542-9.608 0-16.869 13.675-30.544 30.544-30.544 7.094 0 13.622 2.418 18.807 6.475"></path>
  <g>
    <path fill="none" stroke="#000dff" stroke-linecap="round" stroke-linejoin="round" stroke-miterlimit="10" stroke-width="3.876" d="M984.374 255.961c-1.328-1.115 16.011 7.469 36.767 0M1008.873 186.093c0 0 3.233 17.002 6.914 24.364s4.665 12.116-3.168 15.838c-5.232 2.486-12.67 0-12.67 0"></path>
    <path fill="none" stroke="#000dff" stroke-linecap="round" stroke-linejoin="round" stroke-miterlimit="10" stroke-width="3.876" d="
				M928.102,195.782c0-7.752,0-42.635,7.752-54.263c7.752-11.628,11.145-32.657,73.401-29.894s62.256,45.398,62.256,72.529
				c0,5.316,0.149,9.738,0.388,13.414"></path>
  </g>
</svg>
